<?xml version="1.0" standalone="no"?><!DOCTYPE svg PUBLIC "-//W3C//DTD SVG 1.1//EN" "http://www.w3.org/Graphics/SVG/1.1/DTD/svg11.dtd"><svg t="1769268233284" class="icon" viewBox="0 0 1024 1024" version="1.1" xmlns="http://www.w3.org/2000/svg" p-id="10013" xmlns:xlink="http://www.w3.org/1999/xlink" width="200" height="200"><path d="M512 506.66666667m-504.21355614 0a504.21355614 504.21355614 0 1 0 1008.42711228 0 504.21355614 504.21355614 0 1 0-1008.42711228 0Z" fill="#7B84C9" p-id="10014"></path><path d="M1016.21355614 506.66666667c0-2.9262394-0.22509532-6.07757412-0.22509533-9.00381351l-128.30434243-83.2852749-598.75359792 244.22844126 539.55352415 240.40182052C943.05757144 806.49365629 1016.21355614 665.13378432 1016.21355614 506.66666667z" fill="#5B69BC" p-id="10015"></path><path d="M799.22165073 409.42548084h18.68291302v119.52562425h-18.68291302z" fill="#F1543F" p-id="10016"></path><path d="M731.91814481 429.00877522v230.04743498c-106.01990399 2.47604872-219.91814481 92.06399306-219.91814481 92.06399307s-113.8982408-89.58794434-219.91814481-92.06399307V429.00877522h439.83628962z" fill="#2B3B4E" p-id="10017"></path><path d="M509.97414197 262.66332075l-368.93125828 141.81006267c-4.50190674 1.80076271-4.50190674 8.32852749 0 10.12929019l368.93125828 141.81006266c1.35057202 0.45019069 2.70114405 0.45019069 3.82662074 0l368.93125826-141.81006266c4.50190674-1.80076271 4.50190674-8.32852749 0-10.12929019l-368.93125826-141.81006267c-1.12547669-0.45019069-2.47604872-0.45019069-3.82662074 0z" fill="#324A5E" p-id="10018"></path><path d="M556.34378151 389.61709113c0 13.05552957-19.80838971 23.63501044-44.34378151 23.63501044-24.5353918 0-44.34378151-10.57948087-44.34378151-23.63501044s19.80838971-23.63501044 44.34378151-23.63501044c24.5353918 0 44.34378151 10.57948087 44.34378151 23.63501044z" fill="#2B3B4E" p-id="10019"></path><path d="M821.95627983 568.79297984c7.2030508-4.50190674 11.93005289-12.38024358 11.9300529-21.38405708 0-13.95591093-11.25476687-25.21067781-25.21067781-25.21067781-13.95591093 0-25.21067781 11.25476687-25.21067781 25.21067781 0 9.00381351 4.72700208 16.88215032 11.93005288 21.38405708-6.75286012 4.27681143-11.25476687 11.47986223-11.70495755 19.8083897l4.50190675 10.12929019 3.37643006-8.10343216 3.37643006 8.10343216 3.37643007-8.10343216 3.37643007 8.10343216 3.37643005-8.10343216 3.37643008 8.10343216 3.37643004-8.10343216 3.37643008 8.10343216 3.37643007-8.10343216 3.37643006 8.10343216 3.37643005-8.10343216 3.37643007 8.10343216 4.50190676-10.12929019c0-8.32852749-4.72700208-15.53157828-11.25476688-19.8083897z" fill="#FF7058" p-id="10020"></path></svg>